<svg width="40" height="40" viewBox="0 0 40 40" fill="none" xmlns="http://www.w3.org/2000/svg">
<g clip-path="url(#clip0_2654_187)">
<path d="M23.6182 15.5582L20.4179 18.5379L17.4473 12.5434L18.9819 9.0967C19.3698 8.40916 20.0041 8.40008 20.392 9.0967L23.6182 15.5582Z" fill="#FFA000"/>
<path d="M20.4191 18.5371L8.44824 29.6712L17.4484 12.5439L20.4191 18.5371Z" fill="#F57F17"/>
<path d="M27.127 11.001C27.7004 10.4548 28.2906 10.639 28.4398 11.4148L31.5519 29.5202L21.2298 35.717C20.8679 35.9194 19.9079 35.9985 19.9079 35.9985C19.9079 35.9985 19.0349 35.8922 18.7002 35.708L8.44824 29.6707L27.127 11.001Z" fill="#FFCA28"/>
<path d="M17.4484 12.5439L8.44824 29.6712L12.4593 4.63726C12.6097 3.86152 13.0495 3.78239 13.4465 4.46992L17.4484 12.5439Z" fill="#FFA000"/>
</g>
<defs>
<clipPath id="clip0_2654_187">
<rect width="23.1036" height="32" fill="white" transform="translate(8.44824 4)"/>
</clipPath>
</defs>
</svg>
