<<<<<<< HEAD
<svg width="16" height="16" viewBox="0 0 16 16" fill="none" xmlns="http://www.w3.org/2000/svg">
<g clip-path="url(#clip0_1532_7576)">
<g clip-path="url(#clip1_1532_7576)">
<path d="M6.88682 7.99988H9.21061L7.97535 5.41686L6.88682 7.99988ZM7.97944 1.71387L2.06445 3.7955L2.99906 11.5452L7.98573 14.2859L12.998 11.5081L13.9324 3.75866L7.97944 1.71387ZM6.40569 9.09789L5.6805 10.9122L4.32486 10.9178L7.97904 2.82456L7.97205 2.80928H7.96566L7.96576 2.79601L7.97205 2.80928H7.98613L7.9984 2.78193V2.80928H7.98613L7.97904 2.82456L11.7911 10.9515L10.4861 10.9229L9.68335 9.06825L7.96916 9.07643" fill="#D23727"/>
</g>
</g>
<defs>
<clipPath id="clip0_1532_7576">
<rect width="16" height="16" rx="8" fill="white"/>
</clipPath>
<clipPath id="clip1_1532_7576">
<rect width="12.7769" height="12.7769" fill="white" transform="translate(1.61133 1.61157)"/>
</clipPath>
</defs>
=======
<svg width="24" height="24" viewBox="0 0 128 128" fill="none" xmlns="http://www.w3.org/2000/svg">
<path fill="#C4473A" d="M52.864 64h23.28L63.769 38.123zM63.81 1.026L4.553 21.88l9.363 77.637 49.957 27.457 50.214-27.828 9.36-77.635L63.81 1.026zM48.044 75l-7.265 18.176-13.581.056 36.608-81.079-.07-.153h-.064l.001-.133.063.133h.141l.123-.274V12h-.124l-.069.153 38.189 81.417-13.074-.287-8.042-18.58-17.173.082"></path>
>>>>>>> origin/main
</svg>
