<<<<<<< HEAD
<svg width="17" height="17" viewBox="0 0 17 17" fill="none" xmlns="http://www.w3.org/2000/svg">
<g clip-path="url(#clip0_1531_7502)">
<g clip-path="url(#clip1_1531_7502)">
<path d="M6.98648 13.68C7.97463 13.68 8.7718 12.8828 8.7718 11.8947V10.1094H6.98648C5.99833 10.1094 5.20117 10.9065 5.20117 11.8947C5.20117 12.8828 5.99833 13.68 6.98648 13.68Z" fill="#0ACF83"/>
<path d="M5.20117 8.32413C5.20117 7.33598 5.99833 6.53882 6.98648 6.53882H8.7718V10.1094H6.98648C5.99833 10.1094 5.20117 9.31228 5.20117 8.32413Z" fill="#A259FF"/>
<path d="M5.20117 4.75333C5.20117 3.76518 5.99833 2.96802 6.98648 2.96802H8.7718V6.53864H6.98648C5.99833 6.53864 5.20117 5.74148 5.20117 4.75333Z" fill="#F24E1E"/>
<path d="M8.77344 2.96802H10.5587C11.5469 2.96802 12.3441 3.76518 12.3441 4.75333C12.3441 5.74148 11.5469 6.53864 10.5587 6.53864H8.77344V2.96802Z" fill="#FF7262"/>
<path d="M12.3441 8.32413C12.3441 9.31228 11.5469 10.1094 10.5587 10.1094C9.5706 10.1094 8.77344 9.31228 8.77344 8.32413C8.77344 7.33598 9.5706 6.53882 10.5587 6.53882C11.5469 6.53882 12.3441 7.33598 12.3441 8.32413Z" fill="#1ABCFE"/>
</g>
</g>
<defs>
<clipPath id="clip0_1531_7502">
<rect x="0.552734" y="0.310791" width="16" height="16" rx="8" fill="white"/>
</clipPath>
<clipPath id="clip1_1531_7502">
<rect width="10.6288" height="10.6288" fill="white" transform="translate(3.20898 2.96802)"/>
</clipPath>
</defs>
=======
<svg width="24" height="24" viewBox="0 0 128 128" fill="none" xmlns="http://www.w3.org/2000/svg">
<path fill="#0acf83" d="M45.5 129c11.9 0 21.5-9.6 21.5-21.5V86H45.5C33.6 86 24 95.6 24 107.5S33.6 129 45.5 129zm0 0"></path><path fill="#a259ff" d="M24 64.5C24 52.6 33.6 43 45.5 43H67v43H45.5C33.6 86 24 76.4 24 64.5zm0 0"></path><path fill="#f24e1e" d="M24 21.5C24 9.6 33.6 0 45.5 0H67v43H45.5C33.6 43 24 33.4 24 21.5zm0 0"></path><path fill="#ff7262" d="M67 0h21.5C100.4 0 110 9.6 110 21.5S100.4 43 88.5 43H67zm0 0"></path><path fill="#1abcfe" d="M110 64.5c0 11.9-9.6 21.5-21.5 21.5S67 76.4 67 64.5 76.6 43 88.5 43 110 52.6 110 64.5zm0 0"></path>
>>>>>>> origin/main
</svg>
