<svg width="16" height="17" viewBox="0 0 16 17" fill="none" xmlns="http://www.w3.org/2000/svg">
<rect y="0.310791" width="16" height="16" rx="8" fill="#F0DB4F"/>
<path d="M13.6256 11.0192C13.5374 10.4696 13.179 10.008 12.1176 9.57758C11.7488 9.40812 11.3377 9.28678 11.2152 9.00734C11.1717 8.84471 11.166 8.75311 11.1935 8.65467C11.2725 8.33519 11.6538 8.2356 11.9561 8.3272C12.1508 8.39245 12.335 8.54246 12.4462 8.78178C12.966 8.44518 12.9649 8.44739 13.3279 8.21606C13.195 8.01004 13.1241 7.91497 13.0371 7.82682C12.7245 7.47761 12.2985 7.29777 11.6172 7.31153L11.2623 7.35743C10.9222 7.44336 10.5981 7.62186 10.4081 7.86118C9.83785 8.50821 10.0005 9.64061 10.6944 10.1066C11.378 10.6197 12.3822 10.7364 12.5105 11.2162C12.6353 11.8036 12.0788 11.9938 11.5257 11.9262C11.1181 11.8414 10.8913 11.6342 10.6463 11.2575C10.1951 11.5186 10.1951 11.5186 9.73132 11.7853C9.84131 12.0258 9.95688 12.1346 10.1413 12.343C11.0138 13.2281 13.1974 13.1846 13.5891 11.8449C13.605 11.7989 13.7104 11.4921 13.6256 11.0192ZM9.11402 7.38245H7.9873L7.98268 10.2954C7.98268 10.9149 8.01473 11.4829 7.91398 11.657C7.74914 11.9993 7.32199 11.9569 7.12732 11.8905C6.92919 11.7931 6.82844 11.6546 6.71171 11.4589C6.67967 11.4027 6.65561 11.3592 6.64753 11.3559L5.73145 11.9169C5.88377 12.2295 6.10817 12.5009 6.39561 12.6772C6.82497 12.9349 7.40205 13.0139 8.00558 12.8753C8.39838 12.7609 8.7373 12.5239 8.91474 12.1631C9.17128 11.6902 9.11624 11.1177 9.11393 10.4845C9.1197 9.45152 9.11402 8.41872 9.11402 7.38245Z" fill="#323330"/>
</svg>
