<svg width="17" height="17" viewBox="0 0 17 17" fill="none" xmlns="http://www.w3.org/2000/svg">
<g clip-path="url(#clip0_1531_7512)">
<path d="M9.64699 13.4259C9.37516 13.7682 8.824 13.5806 8.81745 13.1435L8.72168 6.75049H13.0203C13.799 6.75049 14.2332 7.64978 13.749 8.25957L9.64699 13.4259Z" fill="url(#paint0_linear_1531_7512)"/>
<path d="M9.64699 13.4259C9.37516 13.7682 8.824 13.5806 8.81745 13.1435L8.72168 6.75049H13.0203C13.799 6.75049 14.2332 7.64978 13.749 8.25957L9.64699 13.4259Z" fill="url(#paint1_linear_1531_7512)" fill-opacity="0.2"/>
<path d="M7.89932 3.13896C8.17115 2.7966 8.72232 2.98419 8.72887 3.42129L8.77084 9.81432H4.52597C3.74734 9.81432 3.31309 8.91502 3.79726 8.30524L7.89932 3.13896Z" fill="#3ECF8E"/>
</g>
<defs>
<linearGradient id="paint0_linear_1531_7512" x1="8.72168" y1="8.16798" x2="12.5422" y2="9.7703" gradientUnits="userSpaceOnUse">
<stop stop-color="#249361"/>
<stop offset="1" stop-color="#3ECF8E"/>
</linearGradient>
<linearGradient id="paint1_linear_1531_7512" x1="7.02787" y1="5.84885" x2="8.77022" y2="9.12874" gradientUnits="userSpaceOnUse">
<stop/>
<stop offset="1" stop-opacity="0"/>
</linearGradient>
<clipPath id="clip0_1531_7512">
<rect width="10.6405" height="10.6405" fill="white" transform="translate(3.42871 2.96216)"/>
</clipPath>
</defs>
</svg>
