<svg width="38" height="38" viewBox="0 0 38 38" fill="none" xmlns="http://www.w3.org/2000/svg">
<g clip-path="url(#clip0_2782_9949)">
<path d="M38 19C38 8.50659 29.4934 0 19 0C8.50659 0 0 8.50659 0 19C0 29.4934 8.50659 38 19 38C29.4934 38 38 29.4934 38 19Z" fill="white"/>
<path d="M12.7939 18.2514C12.7939 18.6088 12.8326 18.8987 12.9002 19.1112C12.9775 19.3238 13.0741 19.5557 13.2094 19.8069C13.2577 19.8842 13.277 19.9615 13.277 20.0291C13.277 20.1257 13.219 20.2223 13.0934 20.3189L12.4848 20.7247C12.3978 20.7827 12.3108 20.8117 12.2335 20.8117C12.1369 20.8117 12.0403 20.7634 11.9437 20.6764C11.8084 20.5315 11.6925 20.3769 11.5959 20.2223C11.4993 20.058 11.4026 19.8745 11.2964 19.6523C10.5427 20.5411 9.59594 20.9856 8.45589 20.9856C7.64432 20.9856 6.99696 20.7537 6.52359 20.29C6.05016 19.8262 5.80859 19.2079 5.80859 18.435C5.80859 17.6137 6.09848 16.947 6.6878 16.4447C7.27718 15.9423 8.05977 15.6911 9.05488 15.6911C9.38336 15.6911 9.72156 15.72 10.079 15.7683C10.4365 15.8166 10.8036 15.8939 11.1901 15.9809V15.2756C11.1901 14.5413 11.0355 14.0293 10.736 13.7297C10.4268 13.4302 9.9051 13.2854 9.16117 13.2854C8.82303 13.2854 8.47522 13.324 8.11774 13.4109C7.76022 13.4979 7.41241 13.6042 7.07427 13.7394C6.91971 13.807 6.80376 13.8457 6.73612 13.865C6.66848 13.8843 6.62016 13.894 6.58151 13.894C6.44629 13.894 6.37865 13.7974 6.37865 13.5945V13.1211C6.37865 12.9665 6.39797 12.8506 6.44629 12.7829C6.4946 12.7153 6.58151 12.6477 6.71679 12.58C7.05494 12.4061 7.46072 12.2612 7.93415 12.1452C8.40758 12.0197 8.90999 11.9617 9.44134 11.9617C10.5911 11.9617 11.4316 12.2226 11.9727 12.7443C12.504 13.266 12.7746 14.0583 12.7746 15.121V18.2514H12.7939ZM8.87134 19.7199C9.19016 19.7199 9.51864 19.6619 9.86645 19.546C10.2143 19.4301 10.5234 19.2175 10.7843 18.9277C10.9389 18.7441 11.0548 18.5412 11.1128 18.3093C11.1708 18.0774 11.2094 17.7973 11.2094 17.4688V17.063C10.9292 16.9954 10.6297 16.9374 10.3206 16.8987C10.0114 16.8601 9.7119 16.8408 9.41235 16.8408C8.76505 16.8408 8.29162 16.9664 7.9728 17.2273C7.65398 17.4881 7.49938 17.8552 7.49938 18.3383C7.49938 18.7924 7.61533 19.1306 7.85685 19.3624C8.08876 19.604 8.4269 19.7199 8.87134 19.7199ZM16.6295 20.7634C16.4556 20.7634 16.3397 20.7344 16.2624 20.6667C16.1851 20.6088 16.1175 20.4735 16.0595 20.29L13.789 12.8216C13.7311 12.6283 13.7021 12.5028 13.7021 12.4351C13.7021 12.2805 13.7794 12.1936 13.934 12.1936H14.8808C15.0644 12.1936 15.19 12.2226 15.2576 12.2902C15.3349 12.3482 15.3928 12.4834 15.4508 12.667L17.074 19.0629L18.5812 12.667C18.6295 12.4738 18.6874 12.3482 18.7647 12.2902C18.842 12.2322 18.9773 12.1936 19.1512 12.1936H19.9241C20.1077 12.1936 20.2333 12.2226 20.3106 12.2902C20.3878 12.3482 20.4555 12.4834 20.4941 12.667L22.0206 19.1402L23.6921 12.667C23.7501 12.4738 23.8177 12.3482 23.8854 12.2902C23.9626 12.2322 24.0882 12.1936 24.2622 12.1936H25.1606C25.3152 12.1936 25.4022 12.2709 25.4022 12.4351C25.4022 12.4834 25.3925 12.5318 25.3829 12.5897C25.3732 12.6477 25.3539 12.725 25.3152 12.8313L22.9868 20.2996C22.9288 20.4928 22.8612 20.6184 22.7839 20.6764C22.7066 20.7344 22.581 20.773 22.4168 20.773H21.5859C21.4023 20.773 21.2767 20.7441 21.1994 20.6764C21.1222 20.6088 21.0545 20.4832 21.0159 20.29L19.5183 14.0583L18.0304 20.2803C17.9822 20.4735 17.9242 20.5991 17.8469 20.6667C17.7696 20.7344 17.6343 20.7634 17.4604 20.7634H16.6295ZM29.0446 21.0242C28.5422 21.0242 28.0398 20.9662 27.5567 20.8503C27.0737 20.7344 26.6968 20.6088 26.4456 20.4638C26.2911 20.3769 26.1848 20.2803 26.1461 20.1933C26.1075 20.1064 26.0882 20.0098 26.0882 19.9228V19.4301C26.0882 19.2272 26.1655 19.1306 26.3104 19.1306C26.3683 19.1306 26.4263 19.1402 26.4843 19.1596C26.5423 19.1789 26.6292 19.2175 26.7258 19.2561C27.0543 19.4011 27.4118 19.517 27.7886 19.5943C28.1751 19.6716 28.5519 19.7102 28.9383 19.7102C29.547 19.7102 30.0204 19.604 30.3489 19.3914C30.6774 19.1789 30.8513 18.8697 30.8513 18.4736C30.8513 18.203 30.7643 17.9809 30.5905 17.7973C30.4165 17.6137 30.088 17.4495 29.6146 17.2948L28.2137 16.8601C27.5084 16.6379 26.9867 16.3094 26.6679 15.8746C26.349 15.4495 26.1848 14.9761 26.1848 14.4737C26.1848 14.0679 26.2718 13.7105 26.4456 13.4013C26.6196 13.0921 26.8514 12.8216 27.1413 12.609C27.4311 12.3868 27.7596 12.2226 28.1461 12.1067C28.5325 11.9907 28.9383 11.9424 29.3634 11.9424C29.576 11.9424 29.7982 11.952 30.0107 11.981C30.233 12.01 30.4358 12.0487 30.6388 12.0873C30.832 12.1356 31.0156 12.1839 31.1894 12.2419C31.3634 12.2999 31.4986 12.3578 31.5952 12.4158C31.7305 12.4931 31.8271 12.5704 31.8851 12.6573C31.943 12.7346 31.972 12.8409 31.972 12.9761V13.4302C31.972 13.6332 31.8947 13.7394 31.7498 13.7394C31.6725 13.7394 31.5469 13.7008 31.3827 13.6235C30.832 13.3723 30.2137 13.2467 29.5276 13.2467C28.977 13.2467 28.5422 13.3336 28.2427 13.5172C27.9432 13.7008 27.7886 13.981 27.7886 14.3771C27.7886 14.6476 27.8852 14.8795 28.0784 15.0631C28.2717 15.2466 28.6292 15.4302 29.1412 15.5945L30.5132 16.0292C31.2088 16.2514 31.7112 16.5606 32.0107 16.9567C32.3102 17.3528 32.4551 17.8069 32.4551 18.3093C32.4551 18.7248 32.3681 19.1016 32.2039 19.4301C32.03 19.7585 31.7981 20.0484 31.4986 20.2803C31.1991 20.5218 30.8416 20.6957 30.4262 20.8214C29.9914 20.9566 29.5373 21.0242 29.0446 21.0242Z" fill="#252F3E"/>
<path fill-rule="evenodd" clip-rule="evenodd" d="M30.8686 25.7202C27.69 28.068 23.0718 29.3143 19.1009 29.3143C13.5358 29.3143 8.5215 27.2564 4.73416 23.8363C4.43465 23.5657 4.70518 23.1986 5.06265 23.4112C9.15914 25.7879 14.2121 27.2274 19.439 27.2274C22.9655 27.2274 26.8397 26.4932 30.4048 24.986C30.9362 24.7444 31.3903 25.3338 30.8686 25.7202Z" fill="#FF9900"/>
<path fill-rule="evenodd" clip-rule="evenodd" d="M32.1928 24.2128C31.787 23.6911 29.5069 23.9616 28.4731 24.0872C28.1639 24.1258 28.1156 23.8553 28.3958 23.6524C30.2121 22.3771 33.1976 22.7443 33.5454 23.1693C33.8932 23.6041 33.4488 26.5895 31.7483 28.0194C31.4875 28.2417 31.2363 28.1257 31.3522 27.8359C31.7387 26.8794 32.5985 24.7248 32.1928 24.2128Z" fill="#FF9900"/>
</g>
<defs>
<clipPath id="clip0_2782_9949">
<rect width="38" height="38" fill="white"/>
</clipPath>
</defs>
</svg>
