<?xml version="1.0" encoding="UTF-8"?>
<svg width="50px" height="50px" viewBox="0 0 50 50" version="1.1" xmlns="http://www.w3.org/2000/svg" xmlns:xlink="http://www.w3.org/1999/xlink">
    <!-- Generator: Sketch 55.1 (78136) - https://sketchapp.com -->
    <title>Artboard</title>
    <desc>Created with Sketch.</desc>
    <g id="Artboard" stroke="none" stroke-width="1" fill="none" fill-rule="evenodd">
        <path d="M11.2885742,5.70458984 L11.2885742,11.5581055 L14.7822266,11.5581055 C16.7861328,11.5581055 17.9594727,10.4770508 17.9594727,8.64453125 C17.9594727,6.83837891 16.7202148,5.70458984 14.7426758,5.70458984 L11.2885742,5.70458984 Z M11.2885742,14.6166992 L11.2885742,21.5117188 L7.30712891,21.5117188 L7.30712891,2.48779297 L15.2963867,2.48779297 C19.4755859,2.48779297 22.0463867,4.80810547 22.0463867,8.59179688 C22.0463867,11.0175781 20.7807617,13.1269531 18.5922852,13.9970703 L22.6000977,21.5117188 L18.0913086,21.5117188 L14.5449219,14.6166992 L11.2885742,14.6166992 Z M34.7009041,2 C40.3039314,2 43.8503181,5.83642578 43.8503181,11.9931641 C43.8503181,18.1630859 40.317115,21.9995117 34.7009041,21.9995117 C29.0451423,21.9995117 25.5383064,18.1630859 25.5383064,11.9931641 C25.5383064,5.82324219 29.0978767,2 34.7009041,2 Z M34.7009041,5.49365234 C31.6027595,5.49365234 29.6120369,8.01171875 29.6120369,11.9931641 C29.6120369,15.9614258 31.5632088,18.5058594 34.7009041,18.5058594 C37.7990486,18.5058594 39.7765877,15.9614258 39.7765877,11.9931641 C39.7765877,8.01171875 37.785865,5.49365234 34.7009041,5.49365234 Z M16.5620117,47.5117188 L12.5805664,47.5117188 L12.5805664,40.5112305 L5.94921875,28.487793 L10.2602539,28.487793 L14.4526367,36.4506836 L14.6899414,36.4506836 L18.8691406,28.487793 L23.1801758,28.487793 L16.5620117,40.5112305 L16.5620117,47.5117188 Z M33.5332031,47.5117188 L30,47.5117188 L36.815918,27.5117188 L40.3491211,27.5117188 L33.5332031,47.5117188 Z" id="ROY/" fill="#58DEFF" fill-rule="nonzero"></path>
    </g>
</svg>